<?xml version="1.0" encoding="UTF-8" standalone="no"?>
<svg
   xmlns:dc="http://purl.org/dc/elements/1.1/"
   xmlns:cc="http://creativecommons.org/ns#"
   xmlns:rdf="http://www.w3.org/1999/02/22-rdf-syntax-ns#"
   xmlns:svg="http://www.w3.org/2000/svg"
   xmlns="http://www.w3.org/2000/svg"
   xmlns:xlink="http://www.w3.org/1999/xlink"
   xmlns:sodipodi="http://sodipodi.sourceforge.net/DTD/sodipodi-0.dtd"
   xmlns:inkscape="http://www.inkscape.org/namespaces/inkscape"
   inkscape:version="1.0 (4035a4fb49, 2020-05-01)"
   sodipodi:docname="logo.svg"
   id="svg25"
   version="1.1"
   viewBox="0 0 848.8 197.693"
   height="197.693"
   width="848.8">
  <metadata
     id="metadata29">
    <rdf:RDF>
      <cc:Work
         rdf:about="">
        <dc:format>image/svg+xml</dc:format>
        <dc:type
           rdf:resource="http://purl.org/dc/dcmitype/StillImage" />
      </cc:Work>
    </rdf:RDF>
  </metadata>
  <sodipodi:namedview
     inkscape:current-layer="svg25"
     inkscape:window-maximized="1"
     inkscape:window-y="0"
     inkscape:window-x="0"
     inkscape:cy="98.846497"
     inkscape:cx="424.39999"
     inkscape:zoom="1.8626296"
     showgrid="false"
     id="namedview27"
     inkscape:window-height="1019"
     inkscape:window-width="1920"
     inkscape:pageshadow="2"
     inkscape:pageopacity="0"
     guidetolerance="10"
     gridtolerance="10"
     objecttolerance="10"
     borderopacity="1"
     bordercolor="#666666"
     pagecolor="#ffffff" />
  <defs
     id="defs8">
    <linearGradient
       gradientUnits="objectBoundingBox"
       y2="10.976"
       x2="0.514"
       y1="9.875"
       x1="0.489"
       id="linear-gradient">
      <stop
         id="stop2"
         stop-color="#3ede86"
         offset="0" />
      <stop
         id="stop4"
         stop-color="#3edf86"
         offset="1" />
    </linearGradient>
    <linearGradient
       gradientTransform="translate(-1320.511,63.846)"
       gradientUnits="userSpaceOnUse"
       xlink:href="#linear-gradient"
       y2="1924.3375"
       x2="1423.5948"
       y1="1727.1275"
       x1="1419.3387"
       id="linear-gradient-2" />
    <linearGradient
       gradientTransform="matrix(0.97990126,0,0,1.020511,-1320.511,63.846)"
       y2="1883.143"
       x2="1437.8588"
       y1="1689.798"
       x1="1433.4686"
       gradientUnits="userSpaceOnUse"
       id="linearGradient48"
       xlink:href="#linear-gradient"
       inkscape:collect="always" />
  </defs>
  <g
     id="g93">
    <path
       fill="#02281c"
       d="M 262.9,132.4 227.6,84 v 48.4 H 215.7 V 64.7 h 12.2 l 34.6,46.9 V 64.7 h 11.9 v 67.7 z"
       data-name="Path 39640"
       id="Path_39640"
       style="fill:#ffffff" />
    <path
       fill="#02281c"
       d="m 285.5,107.8 c 0,-14.2 10.4,-25.7 24.9,-25.7 14.7,0 24.1,11.2 24.1,26.6 v 2.6 h -37.8 c 0.8,7.3 6.3,13.5 15.5,13.5 a 20.714,20.714 0 0 0 14,-5.5 l 4.9,7 c -5,4.7 -12.2,7.2 -19.9,7.2 -14.8,0.1 -25.7,-10.2 -25.7,-25.7 z m 24.8,-17 c -9,0 -13.3,7 -13.7,12.9 h 27.6 C 323.9,98 319.9,90.8 310.3,90.8 Z"
       data-name="Path 39641"
       id="Path_39641"
       style="fill:#ffffff" />
    <path
       fill="#02281c"
       d="m 376,132.4 -12.7,-18.1 -12.8,18.1 h -12 l 18.1,-25.2 -16.9,-23.9 h 12 l 11.6,16.6 11.6,-16.6 h 12 l -17,23.8 18.1,25.2 h -12 z"
       data-name="Path 39642"
       id="Path_39642"
       style="fill:#ffffff" />
    <path
       fill="#02281c"
       d="m 428.5,132.4 v -6.5 a 23.26,23.26 0 0 1 -17.3,7.7 c -10.5,0 -15.8,-5.6 -15.8,-15.5 V 83.3 h 10.7 v 30.8 c 0,7.6 3.9,10 9.9,10 a 16.27,16.27 0 0 0 12.5,-6.4 V 83.3 h 10.7 v 49 z"
       data-name="Path 39643"
       id="Path_39643"
       style="fill:#ffffff" />
    <path
       fill="#02281c"
       d="m 448.8,125.9 4.9,-7.6 a 25.451,25.451 0 0 0 16.5,6.8 c 6.4,0 9.8,-2.6 9.8,-6.5 0,-9.6 -29.6,-2.7 -29.6,-21.6 0,-8 6.9,-14.8 19.3,-14.8 a 28.1,28.1 0 0 1 19,6.8 l -4.5,7.5 a 19.843,19.843 0 0 0 -14.5,-5.9 c -5.6,0 -9,2.6 -9,6.1 0,8.6 29.6,2.1 29.6,21.6 0,8.7 -7.2,15.3 -20.4,15.3 -8.5,0 -16,-2.8 -21.1,-7.7 z"
       data-name="Path 39644"
       id="Path_39644"
       style="fill:#ffffff" />
    <path
       fill="#02281c"
       d="M 501.2,132.4 V 64.7 h 46.4 V 75.1 H 513 v 17.5 h 33.8 V 103 H 513 v 29.3 z"
       data-name="Path 39645"
       id="Path_39645"
       style="fill:#ffffff" />
    <path
       fill="#02281c"
       d="m 556.8,70.8 a 6.6,6.6 0 1 1 6.6,6.6 v 0 a 6.658,6.658 0 0 1 -6.6,-6.6 z m 1.2,61.6 v -49 h 10.7 v 49 z"
       data-name="Path 39646"
       id="Path_39646"
       style="fill:#ffffff" />
    <path
       fill="#02281c"
       d="m 615.6,132.4 v -30.7 c 0,-7.7 -4,-10.2 -10,-10.2 -5.4,0 -10,3.3 -12.6,6.5 v 34.3 h -10.7 v -49 H 593 v 6.6 a 23,23 0 0 1 17.3,-7.8 c 10.6,0 15.8,5.7 15.8,15.7 v 34.5 z"
       data-name="Path 39647"
       id="Path_39647"
       style="fill:#ffffff" />
    <path
       fill="#02281c"
       d="M 670.1,132.4 V 127 c -3.7,4.3 -9.4,6.6 -15.9,6.6 -7.9,0 -17,-5.5 -17,-16.2 0,-11.4 8.9,-16 17,-16 6.7,0 12.3,2.1 15.9,6.3 v -7.3 c 0,-5.7 -4.8,-9.1 -11.5,-9.1 a 19.818,19.818 0 0 0 -14.5,6.3 l -4.5,-7.5 c 5.7,-5.5 12.8,-7.9 20.6,-7.9 11,0 20.5,4.6 20.5,17.7 v 32.6 z m 0,-11.2 v -7.5 c -2.5,-3.3 -7.1,-5.1 -11.7,-5.1 -6,0 -10.6,3.6 -10.6,8.8 0,5.2 4.6,8.8 10.6,8.8 4.6,0.1 9.2,-1.7 11.7,-5 z"
       data-name="Path 39648"
       id="Path_39648"
       style="fill:#ffffff" />
    <path
       fill="#02281c"
       d="m 727.8,132.4 v -30.7 c 0,-7.7 -4,-10.2 -10,-10.2 -5.4,0 -10,3.3 -12.6,6.5 v 34.3 h -10.7 v -49 h 10.7 v 6.6 a 23,23 0 0 1 17.3,-7.8 c 10.6,0 15.8,5.7 15.8,15.7 v 34.5 z"
       data-name="Path 39649"
       id="Path_39649"
       style="fill:#ffffff" />
    <path
       fill="#02281c"
       d="m 749.3,107.8 c 0,-14.8 10.5,-25.7 25.3,-25.7 9.6,0 15.3,4.1 18.8,8.7 l -7,6.4 a 13,13 0 0 0 -11.3,-5.7 c -8.8,0 -14.8,6.7 -14.8,16.2 0,9.5 6,16.3 14.8,16.3 a 13.18,13.18 0 0 0 11.3,-5.9 l 7,6.6 c -3.5,4.6 -9.1,8.7 -18.8,8.7 -14.8,0.2 -25.3,-10.8 -25.3,-25.6 z"
       data-name="Path 39650"
       id="Path_39650"
       style="fill:#ffffff" />
    <path
       fill="#02281c"
       d="m 799.8,107.8 c 0,-14.2 10.3,-25.7 24.9,-25.7 14.7,0 24.1,11.2 24.1,26.6 v 2.6 H 811 c 0.8,7.3 6.3,13.5 15.5,13.5 a 20.714,20.714 0 0 0 14,-5.5 l 4.9,7 c -5,4.7 -12.2,7.2 -19.9,7.2 -14.8,0.1 -25.7,-10.2 -25.7,-25.7 z m 24.8,-17 c -9,0 -13.3,7 -13.7,12.9 h 27.6 C 838.2,98 834.3,90.8 824.6,90.8 Z"
       data-name="Path 39651"
       id="Path_39651"
       style="fill:#ffffff" />
    <path
       fill="url(#linear-gradient)"
       d="m 24.5,28.5 a 14.553,14.553 0 0 1 14.6,14.6 v 0 1.1 l 77.6,38.4 a 25.9,25.9 0 1 1 5.8,38.6 l -53.5,38 a 18.962,18.962 0 0 1 1.3,7.4 21.2,21.2 0 1 1 -21.2,-21.2 20.955,20.955 0 0 1 13.5,4.9 l 52,-37 a 25.719,25.719 0 0 1 -4.1,-14 24.369,24.369 0 0 1 1,-7.1 L 34.3,54 a 14.694,14.694 0 0 1 -20.7,-1.2 14.694,14.694 0 0 1 1.2,-20.7 14.913,14.913 0 0 1 9.7,-3.6 m 0,-9.9 A 24.54,24.54 0 0 0 0,43.1 24.54,24.54 0 0 0 24.5,67.6 24.226,24.226 0 0 0 34.8,65.3 L 100.7,98 v 1.5 a 34.488,34.488 0 0 0 1.6,10.6 l -40,28.4 a 31.131,31.131 0 1 0 17.9,28.2 c 0,-1.1 -0.1,-2.1 -0.2,-3.2 l 43.3,-30.8 A 35.748,35.748 0 1 0 114.9,70.8 L 48.4,37.8 A 24.415,24.415 0 0 0 24.5,18.6 Z"
       data-name="Path 39652"
       id="Path_39652"
       style="fill:url(#linearGradient48)" />
    <path
       fill="url(#linear-gradient-2)"
       d="M 99.6,0 A 22.449,22.449 0 0 0 77.1,22.4 22.363,22.363 0 0 0 99.5,44.8 22.363,22.363 0 0 0 121.9,22.4 v 0 A 22.342,22.342 0 0 0 99.6,0 Z m 0,35 A 12.526,12.526 0 0 1 87,22.5 12.59,12.59 0 0 1 99.5,9.9 12.655,12.655 0 0 1 112.1,22.4 12.59,12.59 0 0 1 99.6,35 Z"
       data-name="Path 39653"
       id="Path_39653"
       style="fill:url(#linear-gradient-2)" />
  </g>
</svg>
