<?xml version="1.0" standalone="no"?>
<!DOCTYPE svg PUBLIC "-//W3C//DTD SVG 20010904//EN"
 "http://www.w3.org/TR/2001/REC-SVG-20010904/DTD/svg10.dtd">
<svg version="1.0" xmlns="http://www.w3.org/2000/svg"
 width="185.000000pt" height="185.000000pt" viewBox="0 0 185.000000 185.000000"
 preserveAspectRatio="xMidYMid meet">
<metadata>
Created by potrace 1.11, written by Peter Selinger 2001-2013
</metadata>
<g transform="translate(0.000000,185.000000) scale(0.100000,-0.100000)"
fill="#000000" stroke="none">
<path d="M962 1829 c-212 -105 -117 -426 116 -394 173 23 242 228 118 351 -65
65 -155 82 -234 43z m156 -95 c31 -20 55 -78 47 -115 -16 -72 -92 -113 -159
-85 -64 27 -90 107 -53 166 37 58 107 72 165 34z"/>
<path d="M299 1669 c-75 -17 -139 -74 -168 -150 -17 -45 -8 -141 17 -181 31
-49 82 -93 127 -108 32 -11 111 -10 165 2 8 2 151 -64 318 -146 279 -138 302
-152 302 -175 0 -15 4 -41 9 -58 l9 -32 -185 -132 -186 -131 -37 11 c-138 41
-281 -20 -348 -149 -32 -61 -34 -70 -30 -140 10 -169 132 -282 298 -276 149 4
263 113 277 264 l6 57 198 140 c115 81 206 139 216 137 119 -22 185 -17 256
20 61 31 124 95 154 157 23 47 27 69 28 141 0 99 -19 151 -81 219 -102 113
-251 144 -389 82 l-66 -30 -306 152 c-298 148 -306 153 -323 192 -45 103 -152
158 -261 134z m137 -120 c31 -29 41 -47 48 -84 3 -15 7 -29 8 -31 2 -2 164
-82 361 -179 l357 -176 37 29 c123 97 291 59 366 -83 29 -55 29 -154 -1 -211
-28 -55 -92 -109 -148 -124 -50 -14 -128 -8 -171 13 -28 14 -31 12 -273 -160
l-245 -175 -1 -66 c0 -73 -11 -101 -57 -150 -53 -56 -158 -73 -227 -37 -36 19
-77 65 -93 105 -16 38 -15 110 2 152 24 63 111 118 183 118 31 0 88 -19 108
-35 12 -10 54 16 245 152 127 90 236 170 243 176 10 11 9 20 -4 46 -10 21 -17
59 -18 99 l0 65 -355 174 -354 174 -40 -16 c-124 -49 -233 64 -176 182 27 55
64 75 132 70 33 -3 56 -12 73 -28z"/>
</g>
</svg>
